<?xml version="1.0" encoding="UTF-8" standalone="no"?>
<svg width="27px" height="27px" viewBox="0 0 27 27" version="1.1" xmlns="http://www.w3.org/2000/svg" xmlns:xlink="http://www.w3.org/1999/xlink" xmlns:sketch="http://www.bohemiancoding.com/sketch/ns">
    <!-- Generator: Sketch 3.2.2 (9983) - http://www.bohemiancoding.com/sketch -->
    <title>Artboard 1</title>
    <desc>Created with Sketch.</desc>
    <defs>
        <path id="path-1" d="M0,0.0472180247 L27,0.0472180247 L27,27.047218 L0,27.047218"></path>
    </defs>
    <g id="Page-1" stroke="none" stroke-width="1" fill="none" fill-rule="evenodd" sketch:type="MSPage">
        <g id="Artboard-1" sketch:type="MSArtboardGroup">
            <g id="Imported-Layers" sketch:type="MSLayerGroup">
                <g id="Group-3">
                    <mask id="mask-2" sketch:name="Clip 2" fill="white">
                        <use xlink:href="#path-1"></use>
                    </mask>
                    <g id="Clip-2"></g>
                    <path d="M13.5000447,0.0472409461 C6.04511613,0.0472409461 -6.70668599e-05,6.24403365 -6.70668599e-05,13.8889986 C-6.70668599e-05,20.0044204 3.86812585,25.192902 9.23213331,27.0231735 C9.90682592,27.151304 10.1545262,26.7229035 10.1545262,26.3573077 C10.1545262,26.0274691 10.142007,24.9368703 10.1361946,23.7802579 C6.38045042,24.6175756 5.5879437,22.1471102 5.5879437,22.1471102 C4.97383482,20.5474277 4.08899938,20.1217778 4.08899938,20.1217778 C2.86413496,19.2626849 4.18132809,19.2803343 4.18132809,19.2803343 C5.53697288,19.3779794 6.25078783,20.7069605 6.25078783,20.7069605 C7.45486152,22.8228322 9.40896626,22.2110608 10.1793409,21.8573841 C10.3005084,20.9629922 10.6503738,20.3521376 11.0364554,20.0064834 C8.03789609,19.6567032 4.88575367,18.4696054 4.88575367,13.1658293 C4.88575367,11.6548525 5.41312275,10.4198491 6.27672035,9.45050427 C6.13655061,9.10187021 5.67445995,7.69403959 6.40750072,5.78743994 C6.40750072,5.78743994 7.54137777,5.4156553 10.1209928,7.20650203 C11.197863,6.89981408 12.3527543,6.74601168 13.5000447,6.74051055 C14.6473351,6.74601168 15.8031207,6.89981408 16.8820029,7.20650203 C19.4587117,5.4156553 20.5908002,5.78743994 20.5908002,5.78743994 C21.3256295,7.69403959 20.8635388,9.10187021 20.7233691,9.45050427 C21.5889787,10.4198491 22.1125473,11.6548525 22.1125473,13.1658293 C22.1125473,18.4824414 18.9543689,19.6528066 15.9482087,19.9954811 C16.4324314,20.4250276 16.8638948,21.267388 16.8638948,22.558778 C16.8638948,24.4108248 16.8484695,25.9014016 16.8484695,26.3573077 C16.8484695,26.7258833 17.0912515,27.1572635 17.775557,27.021569 C23.1366582,25.1892346 27.0001565,20.0025867 27.0001565,13.8889986 C27.0001565,6.24403365 20.9558675,0.0472409461 13.5000447,0.0472409461" id="Fill-1" fill="#191717" sketch:type="MSShapeGroup" mask="url(#mask-2)"></path>
                </g>
                <path id="Fill-4" fill="#191717" sketch:type="MSShapeGroup" d="M5.11319975,19.9207803 C5.08346678,19.9897737 4.97794825,20.0104029 4.88181909,19.9631849 C4.78367791,19.9178006 4.72890664,19.8240522 4.76065162,19.7550588 C4.78971393,19.684461 4.89523246,19.6647486 4.99315007,19.7119667 C5.09106769,19.7571218 5.14695674,19.851787 5.11319975,19.9207803"></path>
                <path id="Fill-6" fill="#191717" sketch:type="MSShapeGroup" d="M5.66008528,20.54619 C5.5957011,20.60739 5.4696154,20.5789675 5.38444049,20.4822393 C5.29591223,20.3857404 5.27959263,20.2564638 5.34487104,20.1945761 C5.41126723,20.1333761 5.53332892,20.1620278 5.62163362,20.2585268 C5.71016187,20.3561718 5.7273757,20.484073 5.66008528,20.54619"></path>
                <path id="Fill-8" fill="#191717" sketch:type="MSShapeGroup" d="M6.19232788,21.3432806 C6.10961209,21.4024178 5.97413703,21.3471773 5.89052701,21.2238603 C5.80781122,21.1007725 5.80781122,20.9531589 5.89253902,20.8940218 C5.97614904,20.8348846 6.10961209,20.8882914 6.19433989,21.0102331 C6.27683213,21.1353838 6.27683213,21.2829974 6.19232788,21.3432806"></path>
                <path d="M6.92150114,22.1135304 C6.84750404,22.1971934 6.68989692,22.1747305 6.57454192,22.060582 C6.45650424,21.948955 6.42364148,21.7905683 6.49763858,21.7069053 C6.57275347,21.6230131 6.73125481,21.6466221 6.84750404,21.7598536 C6.96464748,21.8712515 7.00041648,22.0307843 6.92150114,22.1135304" id="Fill-10" fill="#191717" sketch:type="MSShapeGroup"></path>
                <path id="Fill-12" fill="#191717" sketch:type="MSShapeGroup" d="M7.92750404,22.5607722 C7.89486483,22.6691903 7.74307017,22.7184712 7.59015773,22.6721701 C7.43746885,22.6247228 7.33753923,22.4979676 7.36838998,22.3884035 C7.40013496,22.2790685 7.55260029,22.2279539 7.70663051,22.2772348 C7.85909584,22.3244529 7.95924902,22.4505204 7.92750404,22.5607722"></path>
                <path id="Fill-14" fill="#191717" sketch:type="MSShapeGroup" d="M9.0324082,22.6435871 C9.03620865,22.7577355 8.90654606,22.8524008 8.74603271,22.8544637 C8.58462513,22.8583604 8.45384475,22.765758 8.4520563,22.6534433 C8.4520563,22.5381488 8.57903622,22.4446296 8.74022024,22.4416498 C8.9007336,22.4384408 9.0324082,22.5303555 9.0324082,22.6435871"></path>
                <path id="Fill-16" fill="#191717" sketch:type="MSShapeGroup" d="M10.0604761,22.4642961 C10.0797019,22.5754648 9.96814738,22.6898424 9.80875181,22.7203279 C9.65203892,22.7498964 9.50695094,22.6809031 9.48705444,22.5706513 C9.46760505,22.4565029 9.58094804,22.3421252 9.73766094,22.3125567 C9.89728007,22.2841342 10.0401325,22.3510646 10.0604761,22.4642961"></path>
            </g>
        </g>
    </g>
</svg>