<?xml version="1.0" encoding="utf-8"?>
<!-- Generator: Adobe Illustrator 18.0.0, SVG Export Plug-In . SVG Version: 6.00 Build 0)  -->
<!DOCTYPE svg PUBLIC "-//W3C//DTD SVG 1.1//EN" "http://www.w3.org/Graphics/SVG/1.1/DTD/svg11.dtd">
<svg version="1.1" id="Layer_1" xmlns="http://www.w3.org/2000/svg" xmlns:xlink="http://www.w3.org/1999/xlink" x="0px" y="0px"
	 viewBox="0 0 160 40" enable-background="new 0 0 160 40" xml:space="preserve">
<g>
	<g>
		<g>
			<path fill="#61C275" d="M157.3,1.3c0.2-0.6-0.2-1-0.6-1c0,0,0,0,0,0c0,0,0,0-0.1,0h-21c0,0-0.1,0-0.1,0c0,0-0.1,0-0.1,0
				c-0.4,0-0.6,0.5-0.9,1l-14.6,30.1h-7.3c-0.4,0-0.8,0.4-0.8,0.8c0,3.6,2.3,7.4,6.5,7.4h16.3c4.1,0,5.6-2.3,8.1-7.4L157.3,1.3z
				 M118.3,38c-2.9,0-4.5-2.4-4.8-4.9h13c0.3,1.9,1.6,3.7,3.3,4.9H118.3z M141.1,32.2c-1.9,3.8-3.3,5.8-6.5,5.8
				c-3.2,0-6.5-3-6.5-5.8c0-0.5-0.4-0.8-0.8-0.8h-5.7L135.8,2h19.5L141.1,32.2z"/>
			<path fill="#61C275" d="M134.6,39.9h-16.3c-4.4,0-6.8-4-6.8-7.7c0-0.6,0.5-1.1,1.1-1.1h7.2L134.4,1c0.2-0.5,0.5-1,1.1-1
				c0,0,0.1,0,0.1,0l21,0c0.3,0,0.7,0.1,0.8,0.4c0.2,0.3,0.2,0.6,0.1,0.9l-14.6,31C140.5,37.2,139,39.9,134.6,39.9z M112.6,31.7
				c-0.3,0-0.5,0.2-0.5,0.5c0,3.5,2.2,7.1,6.2,7.1h16.3c3.9,0,5.3-2.1,7.9-7.3l14.6-30.9c0-0.1,0.1-0.3,0-0.4
				c-0.1-0.1-0.2-0.2-0.4-0.2l-0.1,0l-21,0l-0.1,0l-0.1,0c-0.2,0-0.3,0.2-0.5,0.7l-0.1,0.2l-14.7,30.3H112.6z M134.6,38.3
				c-3.3,0-6.8-3.1-6.8-6c0-0.3-0.2-0.5-0.5-0.5h-6.1l14.5-30h20.1l-14.5,30.7C139.3,36.4,137.8,38.3,134.6,38.3z M122,31.1h5.3
				c0.6,0,1.1,0.5,1.1,1.1c0,2.7,3.2,5.5,6.2,5.5c2.9,0,4.3-1.7,6.3-5.6l14.1-29.9H136L122,31.1z M130.6,38.3h-12.3
				c-3.1,0-4.8-2.6-5.1-5.2l0-0.3h13.6l0,0.2c0.3,1.7,1.5,3.5,3.2,4.8L130.6,38.3z M113.8,33.3c0.4,2.2,1.9,4.4,4.5,4.4H129
				c-1.4-1.2-2.4-2.8-2.7-4.4H113.8z"/>
		</g>
		<g>
			<path fill="#61C275" d="M149.5,6.4h-13c-0.4,0-0.8,0.4-0.8,0.8s0.4,0.8,0.8,0.8h13c0.4,0,0.8-0.4,0.8-0.8S149.9,6.4,149.5,6.4z"
				/>
			<path fill="#61C275" d="M149.5,8.4h-13c-0.6,0-1.1-0.5-1.1-1.1s0.5-1.1,1.1-1.1h13c0.6,0,1.1,0.5,1.1,1.1S150.1,8.4,149.5,8.4z
				 M136.5,6.7c-0.3,0-0.5,0.2-0.5,0.5s0.2,0.5,0.5,0.5h13c0.3,0,0.5-0.2,0.5-0.5s-0.2-0.5-0.5-0.5H136.5z"/>
		</g>
		<g>
			<path fill="#61C275" d="M133.8,13.9h13c0.4,0,0.8-0.4,0.8-0.8c0-0.5-0.4-0.8-0.8-0.8h-13c-0.4,0-0.8,0.4-0.8,0.8
				C133,13.5,133.3,13.9,133.8,13.9z"/>
			<path fill="#61C275" d="M146.8,14.1h-13c-0.6,0-1.1-0.5-1.1-1.1c0-0.6,0.5-1.1,1.1-1.1h13c0.6,0,1.1,0.5,1.1,1.1
				C147.9,13.6,147.4,14.1,146.8,14.1z M133.8,12.5c-0.3,0-0.5,0.2-0.5,0.5s0.2,0.5,0.5,0.5h13c0.3,0,0.5-0.2,0.5-0.5
				s-0.2-0.5-0.5-0.5H133.8z"/>
		</g>
		<g>
			<path fill="#61C275" d="M131.1,19.6h13c0.4,0,0.8-0.4,0.8-0.8s-0.4-0.8-0.8-0.8h-13c-0.4,0-0.8,0.4-0.8,0.8
				S130.6,19.6,131.1,19.6z"/>
			<path fill="#61C275" d="M144.1,19.9h-13c-0.6,0-1.1-0.5-1.1-1.1c0-0.6,0.5-1.1,1.1-1.1h13c0.6,0,1.1,0.5,1.1,1.1
				C145.2,19.4,144.7,19.9,144.1,19.9z M131.1,18.3c-0.3,0-0.5,0.2-0.5,0.5c0,0.3,0.2,0.5,0.5,0.5h13c0.3,0,0.5-0.2,0.5-0.5
				c0-0.3-0.2-0.5-0.5-0.5H131.1z"/>
		</g>
		<g>
			<path fill="#61C275" d="M128.4,25.4h13c0.4,0,0.8-0.4,0.8-0.8c0-0.5-0.4-0.8-0.8-0.8h-13c-0.4,0-0.8,0.4-0.8,0.8
				C127.6,25,127.9,25.4,128.4,25.4z"/>
			<path fill="#61C275" d="M141.4,25.7h-13c-0.6,0-1.1-0.5-1.1-1.1c0-0.6,0.5-1.1,1.1-1.1h13c0.6,0,1.1,0.5,1.1,1.1
				C142.5,25.2,142,25.7,141.4,25.7z M128.4,24c-0.3,0-0.5,0.2-0.5,0.5c0,0.3,0.2,0.5,0.5,0.5h13c0.3,0,0.5-0.2,0.5-0.5
				c0-0.3-0.2-0.5-0.5-0.5H128.4z"/>
		</g>
	</g>
	<g>
		<g>
			<polyline fill="#FFFFFF" points="14.5,7.8 4.5,23.7 3.7,25 			"/>
			<path fill="#FFFFFF" d="M3.7,26c-0.2,0-0.4,0-0.5-0.2c-0.5-0.3-0.6-0.9-0.3-1.4l0.8-1.3l10-15.9C13.9,6.8,14.6,6.7,15,7
				c0.5,0.3,0.6,0.9,0.3,1.4l-10,15.8l-0.8,1.3C4.3,25.8,4,26,3.7,26z"/>
		</g>
		<path fill="#FFFFFF" d="M37,38c-7.5,0-13-6.5-13.1-6.6c-0.1-0.1-2.3-2.8-4.5-7.3c-1.9-4-5.1-4.7-5.2-4.8c-0.4-0.1-0.7-0.4-0.8-0.9
			c0-0.4,0.2-0.8,0.6-1C19.9,14.6,24,9.7,23.7,6c-0.1-1.5-1.1-2.4-1.9-2.9c-1.8-1.2-4.6-1.4-6.9-0.5c-4.2,1.6-7.1,4.1-7.1,4.1
			C7.3,7.1,6.7,7,6.3,6.6C6,6.2,6,5.5,6.5,5.2c0.1-0.1,3.2-2.8,7.7-4.5c2.9-1.1,6.3-0.8,8.7,0.7c1.7,1.1,2.7,2.7,2.8,4.5
			C26,10,22.4,15,16.8,18.3c1.4,0.8,3.2,2.3,4.5,5c2.1,4.3,4.2,6.9,4.2,6.9c0.1,0.1,7.2,8.5,15.8,5c0.5-0.2,1.1,0,1.3,0.6
			c0.2,0.5,0,1.1-0.6,1.3C40.2,37.8,38.6,38,37,38z"/>
		<path fill="#FFFFFF" d="M26.9,26c-0.2,0-0.3,0-0.5,0c-1.6-0.2-2.6-1.1-2.9-1.9c-0.9-1.7-1.1-4.6,2.6-9.1c3.8-4.5,6.9-4.3,8.1-3.6
			c0.5,0.4,1.2,1.2,1.3,2.2c0.1,0.7-0.1,1.7-1.1,2.7c-3.7,4-7.5,3.6-7.6,3.6c-0.6-0.1-0.9-0.6-0.9-1.1c0,0,0,0,0-0.1
			c-1,1.7-1.2,3.3-0.6,4.4c0.1,0.2,0.5,0.7,1.4,0.8c1.3,0.1,4.2-0.6,9-6.7c0.2-0.3,0.8-1.3,2.3-3.1c1.1-1.4,3.2-3,5.3-3.1
			c1.1,0,2.1,0.3,2.8,1.1c0.1,0.1,0.9,0.9,0.8,2.2c0,1-0.5,2-1.5,3c0,0,0,0,0,0c0,0-0.8,0.7-1.2,1c-0.4,0.3-1.1,0.2-1.4-0.2
			c-0.3-0.4-0.2-1.1,0.2-1.4c0.4-0.3,1-0.8,1.1-0.9c0.5-0.5,0.8-1,0.8-1.5c0-0.4-0.2-0.7-0.2-0.7c-0.3-0.3-0.8-0.5-1.3-0.5
			c-1.2,0.1-2.8,1-3.9,2.4c-1.6,1.9-2.1,2.8-2.1,2.8c0,0.1-0.1,0.1-0.1,0.2C33.3,23.5,29.8,26,26.9,26z M32.6,13.1
			c-0.9,0-2.7,0.6-4.9,3.3c-0.5,0.6-1,1.3-1.4,1.9c0.2-0.2,0.5-0.2,0.7-0.2c0.1,0,3,0.2,6-3c0,0,0,0,0,0c0.4-0.4,0.5-0.7,0.5-1.1
			c0-0.4-0.3-0.7-0.4-0.8C33,13.1,32.8,13.1,32.6,13.1z"/>
		<path fill="#FFFFFF" d="M39.2,26c-0.9,0-1.8-0.3-2.5-0.8c-3.2-2.6-1.6-7.1-0.2-9.1c0.3-0.5,0.9-0.6,1.4-0.3
			c0.5,0.3,0.6,0.9,0.3,1.4l0,0c0,0-2.8,4.3-0.2,6.4c0.5,0.4,1.1,0.5,1.8,0.4c2.9-0.5,6.9-4.5,7.9-6.1c0.3-0.5,0.9-0.6,1.4-0.3
			c0.5,0.3,0.6,0.9,0.3,1.4c-1.2,1.8-5.5,6.4-9.3,7C39.8,26,39.5,26,39.2,26z"/>
		<path fill="#FFFFFF" d="M50.4,26c-0.2,0-0.3,0-0.5,0c-1.6-0.2-2.6-1.1-2.9-1.9c-0.9-1.7-1.1-4.6,2.6-9.1c3.8-4.5,6.9-4.3,8.1-3.6
			c0.5,0.4,1.2,1.2,1.3,2.3c0.1,0.7-0.1,1.7-1.1,2.7c-3.7,4-7.5,3.6-7.6,3.6c-0.6-0.1-0.9-0.6-0.9-1.1c0,0,0,0,0-0.1
			c-1,1.7-1.2,3.3-0.6,4.4c0.1,0.2,0.5,0.7,1.4,0.8c1.3,0.1,4.2-0.6,9.1-6.7l3.8-5.8c0.3-0.5,0.9-0.6,1.4-0.3
			c0.5,0.3,0.6,0.9,0.3,1.4l-3.8,5.8c0,0,0,0.1-0.1,0.1C56.8,23.5,53.3,26,50.4,26z M56.1,13.1c-0.9,0-2.7,0.6-4.9,3.3
			c-0.5,0.6-1,1.3-1.4,1.9c0.2-0.2,0.5-0.2,0.7-0.2c0.1,0,2.9,0.2,5.9-3c0,0,0,0,0,0c0.4-0.4,0.5-0.7,0.5-1.1c0-0.4-0.3-0.7-0.4-0.8
			C56.5,13.1,56.3,13.1,56.1,13.1z"/>
		<path fill="#FFFFFF" d="M51.8,40c-0.4,0-0.8-0.3-0.9-0.7c-0.2-0.5,0.1-1.1,0.6-1.3c1.7-0.6,4.6-4.3,6-6.5l3.5-5.9
			c-0.6,0.1-1.2,0-1.8-0.2c-1.4-0.6-2.4-2.2-1.4-5c0.7-2.1,1.8-3.7,1.9-3.8c0.3-0.5,0.9-0.6,1.4-0.3c0.5,0.3,0.6,0.9,0.3,1.4l0,0
			c0,0-1,1.5-1.7,3.4c-0.2,0.6-0.6,2,0.3,2.4c1.3,0.6,3.1-1.8,4-3.3l5.3-8.7c0.3-0.5,0.9-0.6,1.4-0.3c0.5,0.3,0.6,0.9,0.3,1.4
			l-11.8,20c0,0,0,0,0,0c-0.4,0.6-4,6.3-7,7.3C52.1,40,52,40,51.8,40z"/>
		<path fill="#FFFFFF" d="M69.7,26.1c-1,0-1.9-0.3-2.7-0.8c-2.6-1.9-2.6-6.4,0.1-10.1c1.8-2.5,4.4-4.1,6.8-4.1c1,0,1.9,0.3,2.7,0.8
			c2.6,1.9,2.6,6.4-0.1,10.1C74.7,24.5,72.1,26.1,69.7,26.1z M73.9,13.1c-1.7,0-3.7,1.3-5.1,3.3c-1.9,2.7-2.2,6.1-0.5,7.3
			c0.4,0.3,0.9,0.5,1.5,0.5c1.7,0,3.7-1.3,5.1-3.3c1.9-2.7,2.2-6.1,0.5-7.3C75,13.2,74.5,13.1,73.9,13.1z"/>
		<g>
			<ellipse fill="#FFFFFF" cx="66.7" cy="7.2" rx="1.1" ry="1.1"/>
			<path fill="#FFFFFF" d="M66.7,8.4c-0.7,0-1.2-0.5-1.2-1.2s0.5-1.2,1.2-1.2s1.2,0.5,1.2,1.2S67.4,8.4,66.7,8.4z M66.7,6.2
				c-0.5,0-0.9,0.4-0.9,0.9s0.4,0.9,0.9,0.9c0.5,0,0.9-0.4,0.9-0.9S67.2,6.2,66.7,6.2z"/>
		</g>
		<path fill="#FFFFFF" d="M104.3,26c-0.6,0-1.3-0.2-2.1-0.9c-0.6-0.6-1.2-1.7-0.6-3.9c0.3-1.1,0.8-2.1,0.9-2.1
			c0.3-0.5,0.9-0.7,1.4-0.4c0.5,0.3,0.7,0.9,0.4,1.4c-0.6,1.2-1.2,3.1-0.7,3.6c0.4,0.3,0.6,0.4,0.8,0.3c0.5,0,1.1-0.5,1.7-1.3
			c0.6-0.8,1.9-3.6,2.4-4.6l3.2-6.5c0,0,0,0,0,0c0-0.1,0.5-1.1,1.1-2l3-5.6c1.4-2.5,3.1-4,4.7-4c0.9,0,1.6,0.5,1.9,1.2
			c0.5,1.1,0.3,2.4-0.7,3.8c-3.3,5.1-7.2,7.2-8.4,7.8l-3,6.1c-0.2,0.4-1.8,3.8-2.6,4.9c-0.7,0.9-1.8,2-3.1,2.1
			C104.5,26,104.4,26,104.3,26z M120.4,2.1c-0.5,0-1.7,0.6-2.9,2.9l-2.3,4.3c1.5-1.1,3.2-2.9,4.9-5.4c0,0,0,0,0,0
			c0.7-0.9,0.7-1.5,0.6-1.7C120.6,2.1,120.6,2.1,120.4,2.1C120.4,2.1,120.4,2.1,120.4,2.1z"/>
		<path fill="#FFFFFF" d="M110.8,26c-0.8,0-1.5-0.3-2-0.8c-2.6-2.4-0.3-6.9-0.2-7.1c0.3-0.5,0.9-0.7,1.4-0.4
			c0.5,0.3,0.7,0.9,0.4,1.4l0,0c0,0-1.7,3.3-0.2,4.6c1,0.9,3-1.5,4.5-4.3c0.2-0.4,1.3-1.9,3.8-2c0.2,0,0.7-0.1,1.2,0
			c0.6,0.1,0.9,0.6,0.9,1.1c-0.1,0.6-0.6,1-1.1,0.9c-0.4-0.1-0.8,0-0.8,0c0,0-0.1,0-0.1,0c-1.3,0-1.9,0.7-2.9,2.5
			C113.9,24.9,112.5,26,110.8,26z"/>
		<path fill="#FFFFFF" d="M93.2,11.7c-2.3,0-4.1-0.4-6.2-0.9c-1-0.2-2-0.5-3.2-0.7c-4.5-0.9-6.8,0.5-6.8,0.5
			c-0.5,0.3-1.1,0.1-1.4-0.4c-0.3-0.5-0.1-1.1,0.3-1.4c0.1-0.1,3-1.8,8.3-0.8c1.2,0.2,2.3,0.5,3.2,0.7c3,0.7,5.1,1.2,8.7,0.6
			c0.5-0.1,1.1,0.3,1.1,0.9c0.1,0.6-0.3,1.1-0.8,1.2C95.2,11.7,94.1,11.7,93.2,11.7z"/>
		<path fill="#FFFFFF" d="M79.5,26c-0.6,0-1.2-0.2-1.8-0.6c-2.4-1.8-1-4.9-0.3-6.3c0.6-1.4,9.1-16,10.1-17.6
			c0.3-0.5,0.9-0.6,1.4-0.4c0.5,0.3,0.6,0.9,0.4,1.4c-3.8,6.5-9.5,16.5-10,17.4c-0.9,1.9-1.2,3.2-0.3,3.9c0.2,0.2,0.5,0.2,0.8,0.2
			c1-0.2,2.2-1.4,2.9-2.7c1-1.9,4.7-8.6,4.8-8.7l0.5-0.9l2.4-4.2L93,3.1c1.8-3.1,3.7-3.5,4.9-2.8c1.2,0.6,1.5,2.2,0.7,3.8
			c-2.8,6.2-8.1,7.7-8.3,7.8c0,0,0,0-0.1,0l-1,1.7c0,0.1-3.7,6.7-4.8,8.7c-0.8,1.6-2.5,3.3-4.3,3.7C80,26,79.7,26,79.5,26z M96.8,2
			c-0.3,0-1.1,0.4-2.1,2.1l-2.8,4.7c1.5-0.9,3.5-2.7,4.8-5.6C97.1,2.5,97,2.1,96.8,2C96.9,2,96.9,2,96.8,2z"/>
		<path fill="#FFFFFF" d="M86.1,26c-0.6,0-1.3-0.2-2-0.7c-2-1.5-1.1-4.4-0.3-5.9c0.3-0.5,0.9-0.7,1.4-0.4c0.5,0.3,0.6,0.9,0.4,1.4
			c0,0-1.3,2.5-0.3,3.2c0.6,0.4,1,0.3,1.1,0.3c0.6-0.2,1.4-1,1.9-2.2c1.2-2.6,0.9-7.4-0.2-9.1c-0.3-0.5-0.2-1.1,0.3-1.4
			c0.5-0.3,1.1-0.2,1.4,0.3c1.8,2.8,1.5,8.6,0.3,11.1c-0.9,1.8-2,3-3.3,3.3C86.6,26,86.3,26,86.1,26z"/>
		<path fill="#FFFFFF" d="M97.7,26c-1.3,0-2.5-0.6-3.2-1.6c-1.2-1.8-0.5-3.8-0.2-4.8c0-0.1,0.1-0.2,0.1-0.2c0.1-0.3,0.6-1.5,1.2-2.8
			c-1.1,0.7-2.1,1-3.1,0.8c-1.6-0.3-2.4-1.6-2.5-1.8c-1.2-2.1-0.2-4.9-0.1-5.3c0.2-0.5,0.8-0.8,1.3-0.6c0.5,0.2,0.8,0.8,0.6,1.3
			c-0.2,0.6-0.7,2.4-0.1,3.5c0,0,0,0,0,0l0,0c0,0,0.4,0.7,1.1,0.8c0.8,0.1,1.7-0.5,2.3-1c0,0,0,0,0.1-0.1c0,0,1.6-1.2,2.8-2.9
			c0.3-0.4,0.9-0.5,1.3-0.3c0.4,0.3,0.6,0.8,0.4,1.3l-0.2,0.4c-1.3,2.7-3.1,6.7-3.3,7.2c0,0.1-0.1,0.2-0.1,0.3c-0.2,0.8-0.7,2,0,3
			c0.2,0.4,0.9,0.7,1.7,0.7c0.9-0.1,2.6-0.7,4.3-4.2l3.8-8.1c0.2-0.5,0.8-0.7,1.3-0.5c0.5,0.2,0.7,0.8,0.5,1.4l-0.2,0.4l-0.7,1.6
			l-2.9,6.2c-0.9,1.9-2.9,5.1-6,5.4C97.9,26,97.8,26,97.7,26z"/>
	</g>
</g>
</svg>
